<svg width="24" height="24" viewBox="0 0 24 24" fill="none" xmlns="http://www.w3.org/2000/svg">
<path d="M14.2505 15.7493V17.6243C14.2505 18.1216 14.0529 18.5985 13.7013 18.9502C13.3497 19.3018 12.8728 19.4993 12.3755 19.4993H4.87549C4.37821 19.4993 3.90129 19.3018 3.54966 18.9502C3.19803 18.5985 3.00049 18.1216 3.00049 17.6243V6.37433C3.00049 5.87705 3.19803 5.40013 3.54966 5.0485C3.90129 4.69687 4.37821 4.49933 4.87549 4.49933H12.0005C13.036 4.49933 14.2505 5.33886 14.2505 6.37433V8.24933" stroke="#EFF0F3" stroke-width="1.00189" stroke-linecap="round" stroke-linejoin="round"/>
<path d="M17.2495 15.7509L21 12.0004L17.2495 8.24982" stroke="#EFF0F3" stroke-width="1.00189" stroke-linecap="round" stroke-linejoin="round"/>
<path d="M8.24915 11.9996H20.2491" stroke="#EFF0F3" stroke-width="1.00189" stroke-linecap="round" stroke-linejoin="round"/>
</svg>
