<svg width="24" height="24" viewBox="0 0 24 24" fill="none" xmlns="http://www.w3.org/2000/svg">
<path d="M17.9994 3.7502H5.99939C4.78064 3.7502 3.98376 4.40645 3.74939 5.6252L2.24939 12.7502V18.0002C2.25112 18.5964 2.48873 19.1677 2.91031 19.5893C3.33189 20.0109 3.90319 20.2485 4.49939 20.2502H19.4994C20.0956 20.2485 20.6669 20.0109 21.0885 19.5893C21.5101 19.1677 21.7477 18.5964 21.7494 18.0002V12.7502L20.2494 5.6252C20.015 4.35957 19.1713 3.7502 17.9994 3.7502Z" stroke="#EFF0F3" stroke-width="1.00189" stroke-linejoin="round"/>
<path d="M2.24939 12.7512H9.00035" stroke="#EFF0F3" stroke-width="1.00189" stroke-linecap="round" stroke-linejoin="round"/>
<path d="M14.9995 12.7512H21.7505" stroke="#EFF0F3" stroke-width="1.00189" stroke-linecap="round" stroke-linejoin="round"/>
<path d="M9.00049 12.7512C9.00049 13.547 9.3166 14.3102 9.87929 14.8728C10.442 15.4355 11.2052 15.7516 12.0009 15.7516C12.7967 15.7516 13.5598 15.4355 14.1225 14.8728C14.6852 14.3102 15.0013 13.547 15.0013 12.7512" stroke="#EFF0F3" stroke-width="1.00189" stroke-linecap="round" stroke-linejoin="round"/>
<path d="M6.74841 6.75063H17.2484" stroke="#EFF0F3" stroke-width="1.00189" stroke-linecap="round" stroke-linejoin="round"/>
<path d="M6.00098 9.75066H18.001" stroke="#EFF0F3" stroke-width="1.00189" stroke-linecap="round" stroke-linejoin="round"/>
</svg>
