<svg width="24" height="24" viewBox="0 0 24 24" fill="none" xmlns="http://www.w3.org/2000/svg">
<path d="M11.6262 3.00034C6.86325 3.00034 3.00122 6.86237 3.00122 11.6253C3.00122 16.3883 6.86325 20.2503 11.6262 20.2503C16.3892 20.2503 20.2512 16.3883 20.2512 11.6253C20.2512 6.86237 16.3892 3.00034 11.6262 3.00034Z" stroke="#EFF0F3" stroke-width="1.00189" stroke-miterlimit="10"/>
<path d="M10.3129 10.3136H11.8135V15.7533" stroke="#EFF0F3" stroke-width="1.00189" stroke-linecap="round" stroke-linejoin="round"/>
<path d="M9.74951 15.9381H13.8775" stroke="#EFF0F3" stroke-width="1.00189" stroke-miterlimit="10" stroke-linecap="round"/>
<path d="M11.6298 6.09457C11.3881 6.09457 11.1518 6.16626 10.9508 6.30056C10.7498 6.43486 10.5931 6.62575 10.5006 6.84908C10.4081 7.07242 10.3839 7.31817 10.4311 7.55526C10.4782 7.79235 10.5946 8.01014 10.7656 8.18107C10.9365 8.352 11.1543 8.46841 11.3914 8.51557C11.6285 8.56273 11.8742 8.53853 12.0976 8.44602C12.3209 8.35351 12.5118 8.19685 12.6461 7.99585C12.7804 7.79486 12.8521 7.55855 12.8521 7.31681C12.8521 6.99266 12.7233 6.68177 12.4941 6.45256C12.2649 6.22335 11.954 6.09457 11.6298 6.09457Z" fill="#EFF0F3"/>
</svg>
