<svg width="16"
     height="16"
     viewBox="0 0 16 16"
     fill="none"
     xmlns="http://www.w3.org/2000/svg">
<path d="M13.9885 3.00214H10.5019V1.50182C10.5019
1.36918 10.4492 1.24198 10.3554 1.14819C10.2616
1.0544 10.1344 1.00171 10.0017 1.00171H6.00087C5.86823
1.00171 5.74103 1.0544 5.64724 1.14819C5.55345 1.24198
5.50076 1.36918 5.50076 1.50182V3.00214H2.01407L2
4.25242H3.03147L3.65942 14.0671C3.67532 14.3209
3.78729 14.5591 3.97257 14.7333C4.15785 14.9075
4.40252 15.0045 4.65683 15.0048H11.3458C11.5999
15.0047 11.8446 14.9079 12.0299 14.7341C12.2153
14.5602 12.3275 14.3223 12.3438 14.0686L12.9711
4.25242H14.0026L13.9885 3.00214ZM5.50076
13.0043L5.21945 5.00258H6.25093L6.53224
13.0043H5.50076ZM8.50142 13.0043H7.5012V5.00258H8.50142V13.0043ZM9.25158 3.00214H6.75103V2.12695C6.75103 2.09379 6.76421 2.06199 6.78765 2.03855C6.8111 2.0151 6.8429 2.00193 6.87606 2.00193H9.12655C9.15971 2.00193 9.19151 2.0151 9.21496 2.03855C9.23841 2.06199 9.25158 2.09379 9.25158 2.12695V3.00214ZM10.5019 13.0043H9.47038L9.75169 5.00258H10.7832L10.5019 13.0043Z" fill="#7BC297"/>
</svg>
