<svg width="25" height="28" viewBox="3 0 25 28" fill="none" xmlns="http://www.w3.org/2000/svg">
<path d="M20.3123 11.6792V21.9595C20.3123 22.6315 20.0653 23.276 19.6258 23.7512C19.1863 24.2264 18.5901 24.4933 17.9685 24.4933H7.03101C6.4094 24.4933 5.81326 24.2264 5.37372 23.7512C4.93419 23.276 4.68726 22.6315 4.68726 21.9595V5.06763C4.68726 4.39563 4.93419 3.75115 5.37372 3.27597C5.81326 2.8008 6.4094 2.53384 7.03101 2.53384H11.8528C12.267 2.53391 12.6643 2.71182 12.9573 3.02846L19.8547 10.4852C20.1476 10.8019 20.3122 11.2314 20.3123 11.6792Z" stroke="#7BC297" stroke-width="2" stroke-linejoin="round"/>
<path d="M12.5 2.95583V9.29119C12.5 9.73926 12.6646 10.169 12.9577 10.4858C13.2508 10.8026 13.6483 10.9806 14.0627 10.9806H19.9229" stroke="#7BC297" stroke-width="2" stroke-linecap="round" stroke-linejoin="round"/>
<path d="M8.59375 15.203H16.4074" stroke="#7BC297" stroke-width="2" stroke-linecap="round" stroke-linejoin="round"/>
<path d="M8.59375 19.4257H16.4074" stroke="#7BC297" stroke-width="2" stroke-linecap="round" stroke-linejoin="round"/>
</svg>
