<svg width="17" height="17" viewBox="0 0 17 17" fill="none" xmlns="http://www.w3.org/2000/svg">
<path d="M8.28651 2.25414C4.63009 2.20476 1.64507 5.18978 1.69445 8.84621C1.74321 12.3529 4.59852 15.2082 8.10522 15.257C11.7623 15.307 14.7467 12.322 14.6967 8.66554C14.6485 5.15821 11.7932 2.3029 8.28651 2.25414ZM12.238 12.4829C12.2255 12.4964 12.2103 12.507 12.1933 12.5139C12.1763 12.5208 12.158 12.5239 12.1397 12.5229C12.1214 12.522 12.1035 12.517 12.0873 12.5083C12.0711 12.4997 12.0571 12.4876 12.0461 12.4729C11.7665 12.1071 11.4241 11.794 11.0349 11.548C10.2391 11.0373 9.23078 10.756 8.19587 10.756C7.16095 10.756 6.15261 11.0373 5.35681 11.548C4.96762 11.7939 4.62524 12.1069 4.34565 12.4726C4.33467 12.4873 4.32059 12.4994 4.30441 12.508C4.28823 12.5167 4.27035 12.5216 4.25204 12.5226C4.23372 12.5236 4.21542 12.5205 4.19844 12.5136C4.18145 12.5066 4.16619 12.4961 4.15374 12.4826C3.23656 11.4925 2.71702 10.1988 2.69467 8.84933C2.64372 5.80773 5.13958 3.26186 8.18243 3.25436C11.2253 3.24686 13.6971 5.71771 13.6971 8.75556C13.6981 10.1376 13.177 11.4689 12.238 12.4829Z" fill="#7BC297"/>
<path d="M8.19597 5.25574C7.5795 5.25574 7.02211 5.48676 6.62603 5.9066C6.22995 6.32644 6.03207 6.90696 6.07677 7.52999C6.16743 8.757 7.11808 9.75736 8.19597 9.75736C9.27386 9.75736 10.2226 8.757 10.3152 7.53031C10.3614 6.91321 10.1651 6.338 9.76247 5.91035C9.36483 5.48832 8.80838 5.25574 8.19597 5.25574Z" fill="#7BC297"/>
</svg>
