<svg width="21" height="20" viewBox="0 0 38 37" fill="none" xmlns="http://www.w3.org/2000/svg">
<path d="M30.8745 15.9889V30.0626C30.8745 30.9826 30.4992 31.8649 29.8311 32.5154C29.163 33.1659 28.2568 33.5314 27.312 33.5314H10.687C9.74218 33.5314 8.83604 33.1659 8.16794 32.5154C7.49985 31.8649 7.12451 30.9826 7.12451 30.0626V6.93762C7.12451 6.01765 7.49985 5.13536 8.16794 4.48485C8.83604 3.83433 9.74218 3.46887 10.687 3.46887H18.0161C18.6458 3.46896 19.2496 3.71252 19.6949 4.146L30.1791 14.3542C30.6243 14.7878 30.8744 15.3758 30.8745 15.9889Z" stroke="#EFF0F3" stroke-width="2.5" stroke-linejoin="round"/>
<path d="M19.0002 4.04651V12.7196C19.0002 13.333 19.2505 13.9213 19.696 14.355C20.1414 14.7888 20.7456 15.0325 21.3756 15.0325H30.2831" stroke="#EFF0F3" stroke-width="2.5" stroke-linecap="round" stroke-linejoin="round"/>
<path d="M13.0623 20.813H24.939" stroke="#EFF0F3" stroke-width="2.5" stroke-linecap="round" stroke-linejoin="round"/>
<path d="M13.0623 26.5938H24.939" stroke="#EFF0F3" stroke-width="2.5" stroke-linecap="round" stroke-linejoin="round"/>
</svg>
