<svg width="20" height="21" viewBox="0 0 36 37" fill="none" xmlns="http://www.w3.org/2000/svg">
<path d="M4.50122 13.8751V8.672C4.50122 7.90536 4.79754 7.17011 5.32498 6.62802C5.85243 6.08592 6.5678 5.78137 7.31372 5.78137H12.6497C13.2051 5.78139 13.7479 5.95036 14.21 6.267L16.1675 7.60825C16.6295 7.92488 17.1724 8.09386 17.7277 8.09387H28.6887C29.4346 8.09387 30.15 8.39842 30.6775 8.94052C31.2049 9.48261 31.5012 10.2179 31.5012 10.9845V13.8751" stroke="#EFF0F3" stroke-width="2.5" stroke-linecap="round" stroke-linejoin="round"/>
<path d="M33.7428 16.372L32.6024 28.3284C32.6024 29.0941 32.3067 29.8286 31.7804 30.3706C31.254 30.9125 30.5399 31.2177 29.7948 31.219H6.20496C5.45989 31.2177 4.74578 30.9125 4.2194 30.3706C3.69302 29.8286 3.39738 29.0941 3.39738 28.3284L2.25691 16.372C2.23216 16.0538 2.27178 15.7338 2.37327 15.4321C2.47477 15.1304 2.63593 14.8536 2.84663 14.619C3.05733 14.3845 3.31299 14.1973 3.59752 14.0693C3.88205 13.9413 4.18929 13.8752 4.49988 13.8752H31.5069C31.8169 13.8762 32.1234 13.943 32.4071 14.0715C32.6908 14.1999 32.9456 14.3872 33.1555 14.6217C33.3655 14.8561 33.526 15.1326 33.6271 15.4338C33.7281 15.735 33.7676 16.0544 33.7428 16.372Z" stroke="#EFF0F3" stroke-width="2.5" stroke-linecap="round" stroke-linejoin="round"/>
</svg>
