<svg width="62" height="62" viewBox="0 0 82 82" fill="none" xmlns="http://www.w3.org/2000/svg">
<path d="M40.625 0C18.2246 0 0 18.2246 0 40.625C0 63.0254 18.2246 81.25 40.625 81.25C63.0254 81.25 81.25 63.0254 81.25 40.625C81.25 18.2246 63.0254 0 40.625 0ZM56.25 43.75H43.75V56.25C43.75 57.0788 43.4208 57.8737 42.8347 58.4597C42.2487 59.0458 41.4538 59.375 40.625 59.375C39.7962 59.375 39.0013 59.0458 38.4153 58.4597C37.8292 57.8737 37.5 57.0788 37.5 56.25V43.75H25C24.1712 43.75 23.3763 43.4208 22.7903 42.8347C22.2042 42.2487 21.875 41.4538 21.875 40.625C21.875 39.7962 22.2042 39.0013 22.7903 38.4153C23.3763 37.8292 24.1712 37.5 25 37.5H37.5V25C37.5 24.1712 37.8292 23.3763 38.4153 22.7903C39.0013 22.2042 39.7962 21.875 40.625 21.875C41.4538 21.875 42.2487 22.2042 42.8347 22.7903C43.4208 23.3763 43.75 24.1712 43.75 25V37.5H56.25C57.0788 37.5 57.8737 37.8292 58.4597 38.4153C59.0458 39.0013 59.375 39.7962 59.375 40.625C59.375 41.4538 59.0458 42.2487 58.4597 42.8347C57.8737 43.4208 57.0788 43.75 56.25 43.75Z" fill="#21335B"/>
</svg>
