<svg width="25" height="28" viewBox="0 0 25 28" fill="none" xmlns="http://www.w3.org/2000/svg">
<path d="M3.12598 10.3429V6.46432C3.12598 5.89285 3.33175 5.34478 3.69803 4.94068C4.06432 4.53659 4.5611 4.30957 5.0791 4.30957H8.78467C9.17031 4.30958 9.54731 4.43554 9.86816 4.67157L11.2275 5.67138C11.5484 5.9074 11.9254 6.03336 12.311 6.03337H19.9229C20.4409 6.03337 20.9376 6.26039 21.3039 6.66449C21.6702 7.06858 21.876 7.61665 21.876 8.18813V10.3429" stroke="#37578A" stroke-width="1" stroke-linecap="round" stroke-linejoin="round"/>
<path d="M23.4325 12.2042L22.6405 21.1168C22.6405 21.6876 22.4352 22.2351 22.0696 22.6391C21.7041 23.0431 21.2082 23.2705 20.6908 23.2715H4.30892C3.79152 23.2705 3.29561 23.0431 2.93007 22.6391C2.56452 22.2351 2.35922 21.6876 2.35922 21.1168L1.56722 12.2042C1.55004 11.967 1.57755 11.7284 1.64803 11.5035C1.71851 11.2786 1.83044 11.0723 1.97675 10.8974C2.12307 10.7226 2.30061 10.5831 2.4982 10.4877C2.69579 10.3922 2.90915 10.343 3.12484 10.343H21.8797C22.095 10.3437 22.3078 10.3935 22.5048 10.4893C22.7018 10.585 22.8788 10.7247 23.0246 10.8994C23.1704 11.0742 23.2819 11.2803 23.3521 11.5048C23.4222 11.7293 23.4496 11.9674 23.4325 12.2042Z" stroke="#37578A" stroke-width="1" stroke-linecap="round" stroke-linejoin="round"/>
</svg>
