<svg width="154" height="64" viewBox="0 0 154 64" fill="none" xmlns="http://www.w3.org/2000/svg">
<g clip-path="url(#clip0_5_20)">
<mask id="mask0_5_20" style="mask-type:luminance" maskUnits="userSpaceOnUse" x="100" y="7" width="47" height="50">
<path d="M144.921 40.847C149.477 28.1487 143.658 13.8578 131.925 8.92736C120.192 3.99692 106.987 10.294 102.431 22.9923C97.8753 35.6906 103.694 49.9815 115.427 54.9119C127.161 59.8424 140.365 53.5453 144.921 40.847Z" fill="white"/>
</mask>
<g mask="url(#mask0_5_20)">
<path d="M144.921 40.847C149.477 28.1487 143.658 13.8578 131.925 8.92736C120.192 3.99692 106.987 10.294 102.431 22.9923C97.8753 35.6906 103.694 49.9815 115.427 54.9119C127.161 59.8424 140.365 53.5453 144.921 40.847Z" fill="url(#paint0_linear_5_20)"/>
<path opacity="0.58" d="M106.484 16.4876L106.205 16.8617L106.575 16.37L106.553 16.3994L106.531 16.4288L106.506 16.4582L106.484 16.4876ZM135.112 52.2271C135.502 51.9839 135.999 51.6097 136.379 51.3425C130.489 55.6024 122.424 54.4559 118.599 53.1036C97.2386 45.5912 98.2535 20.1088 111.704 13.016C111.458 13.0935 111.211 13.179 110.964 13.2699C110.717 13.3607 110.492 13.4569 110.265 13.5612C110.038 13.6654 109.82 13.7696 109.608 13.8845C109.396 13.9995 109.193 14.1144 108.993 14.24C106.163 16.5597 104.457 19.5503 103.526 21.6509C95.3767 40.011 113.132 60.6508 131.465 54.1326L132.529 53.6675C133.431 53.2426 133.431 53.2426 135.127 52.2217M142.367 44.6558C142.824 43.9022 143.335 42.8305 143.726 42.0368C139.774 50.4472 122.681 52.3767 111.243 42.753C98.9203 32.405 104.402 13.9674 116.89 12.3639H116.083H115.819C107.872 13.1924 102.978 21.8887 102.978 29.468C103.015 49.6775 130.722 58.8442 141.007 46.6522C141.429 46.0696 141.948 45.2598 142.338 44.6558M145.58 35.604C145.886 33.4393 145.874 32.5226 145.827 30.3098C146.19 38.7202 130.41 44.2469 117.51 37.7661C104.978 31.4723 104.617 16.7522 116.89 12.3639C107.546 14.6676 103.279 25.3282 108.277 33.9097C116.041 47.2268 142.886 48.5123 145.583 35.6949L145.595 35.6174M144.301 22.8161C143.763 21.3515 143.449 20.7743 142.412 18.8581C146.094 25.6864 133.989 32.4184 122.787 29.7726C112.663 27.3861 107.818 18.1713 116.89 12.3719C108.724 16.1134 107.26 26.1059 117.243 32.0336C128.41 38.6587 146.837 33.0545 144.612 23.7007L144.301 22.8161ZM106.484 16.4876L106.509 16.4555L106.536 16.4234C106.544 16.4107 106.553 16.399 106.563 16.3887L106.588 16.3566L106.672 16.247L106.484 16.4876ZM134.658 10.9261C135.944 11.7275 137.159 12.6553 138.288 13.6975C143.187 18.6256 134.969 24.9808 126.314 24.9033C116.93 24.8205 111.188 18.2007 116.061 13.0988C116.322 12.8356 116.596 12.5884 116.883 12.3585C112.863 17.5405 119.787 21.4451 126.084 20.7743C135.27 19.7935 138.236 14.0289 134.823 11.1105C134.487 10.8475 134.133 10.6117 133.764 10.4049L134.658 10.9261Z" fill="url(#paint1_linear_5_20)"/>
</g>
<path d="M3.26705 40.305L4.60301 32.8219C5.16357 29.6844 6.33161 29.0644 9.04798 29.0644H10.3963C12.2187 29.0644 14.1745 30.1949 15.5821 30.7775L13.5226 42.3094C11.8928 42.9294 9.53445 44.0599 7.71449 44.0599H6.37359C3.6424 44.0599 2.7139 43.4024 3.26705 40.3023M9.06279 26.7313C5.22037 26.7313 3.08184 27.5705 2.22742 32.3436L0.740827 40.6684C0.190145 43.7605 0.765521 45.2117 2.27928 45.8371C3.10654 46.1818 4.21284 46.2887 5.57102 46.2887H7.02058C9.07761 46.2887 11.552 45.0834 13.1769 44.2817L12.7867 46.4705C12.2261 49.608 10.8482 51.5696 8.117 51.5696H1.25447L0.851951 53.8332H8.01329C11.9174 53.868 14.3128 51.6952 15.145 46.8366L18.7133 26.8756H16.2982L15.9673 28.7464C14.6264 27.9446 12.5101 26.7393 10.458 26.7393L9.06279 26.7313ZM29.9541 40.925L31.3469 33.1079C31.9791 29.5695 32.9076 29.0991 35.8412 29.0991H39.1774C42.2469 29.0991 42.9038 29.5748 42.2716 33.1079L40.8764 40.917C40.264 44.3458 39.5182 44.9258 36.3499 44.9258H33.0113C29.8776 44.9258 29.3417 44.3405 29.9541 40.917M35.9351 26.6939C32.0235 26.6939 29.7615 28.1531 28.912 32.9689L27.4477 41.1789C26.5932 45.96 28.3144 47.4566 32.226 47.4566H36.2364C40.1479 47.4566 42.4099 45.96 43.2594 41.1789L44.7262 32.9689C45.5856 28.1531 43.857 26.6939 39.9454 26.6939H35.9351ZM69.9539 41.4969L70.149 40.4039C70.7416 37.0819 71.764 36.6436 74.5939 36.6436H77.3251C78.7969 36.6506 80.2673 36.7398 81.7306 36.9109L80.5527 43.504C78.9327 44.0866 76.572 45.2197 74.7841 45.2197H73.0555C69.9193 45.2197 69.3909 44.5997 69.944 41.4969M80.0687 26.6832H72.6011L72.2233 28.7998H79.234C82.4047 28.7998 83.1283 29.0911 82.4689 32.7765L82.0393 35.1818C80.5302 34.8236 78.9885 34.6523 77.4437 34.6713H74.6458C73.2308 34.6713 72.0603 34.7462 71.1022 35.0722C69.4304 35.6388 68.4006 36.975 67.8549 40.0351L67.5487 41.7508C66.6029 47.0397 68.4945 47.4058 72.3715 47.4058H73.9889C76.046 47.4058 78.5944 46.1658 80.2218 45.3614L79.881 47.2589H82.3504L85.0223 32.2928C85.8471 27.6827 84.1753 26.6805 80.5008 26.6805H80.0934M24.2596 20.5658L19.4838 47.3096H21.9112L26.6896 20.5658H24.2596ZM49.7515 43.3703L51.9987 30.7802C53.6211 30.1975 55.9794 29.0671 57.7673 29.0671H59.1502C61.8813 29.0671 62.8148 29.6871 62.2542 32.8246L60.7281 41.3633C60.175 44.4634 59.0193 45.0834 56.2832 45.0834H54.9003C53.1149 45.0834 51.1591 43.953 49.7466 43.3703M51.3641 20.5658L46.5857 47.3096H49.0551L49.3885 45.4015C50.7269 46.2032 52.8334 47.4459 54.8904 47.4459H56.2387C60.1157 47.4459 62.2616 46.5693 63.1161 41.7909L64.8027 32.3382C65.6571 27.5598 63.8149 26.726 59.9404 26.726H58.5921C56.535 26.726 53.994 27.9286 52.3666 28.733L53.8335 20.5658H51.3641ZM91.5441 20.5257L86.7633 47.2722H89.1907L93.9691 20.5257H91.5441Z" fill="#37578A"/>
<path d="M128.41 25.6864L124.585 47.2402L131.645 47.168L135.47 25.6249L143.659 25.542L144.792 19.2509L121.199 19.4781L120.066 25.7665L128.41 25.6864ZM117.394 25.7986L118.532 19.5102C116.224 19.5431 113.926 19.8459 111.677 20.4135C109.321 21.1083 107.42 22.0785 105.889 23.3826C100.264 28.1344 99.3178 36.6062 101.963 41.537C103 43.436 104.516 44.9751 106.333 45.9734C107.446 46.5864 108.62 47.0573 109.833 47.3764C111.719 47.8816 115.018 47.9751 117.295 47.8041C118.856 47.7243 120.411 47.5459 121.953 47.2696L122.79 42.5419C120.103 42.9134 116.387 43.0978 113.606 42.6515C109.739 42.0368 107.395 39.7304 107.334 36.5047C107.33 34.7855 107.689 33.088 108.383 31.5418C109.692 28.5646 111.89 26.5977 114.581 26.0231C115.515 25.8619 116.461 25.7868 117.406 25.7986" fill="white"/>
</g>
<defs>
<linearGradient id="paint0_linear_5_20" x1="103.94" y1="47.8204" x2="182.138" y2="-5.97797" gradientUnits="userSpaceOnUse">
<stop stop-color="#5DB77A"/>
<stop offset="0.31" stop-color="#4F89C8"/>
<stop offset="0.78" stop-color="#2E4B7A"/>
<stop offset="1" stop-color="#21335B"/>
</linearGradient>
<linearGradient id="paint1_linear_5_20" x1="101.476" y1="32.8888" x2="145.871" y2="32.8888" gradientUnits="userSpaceOnUse">
<stop stop-color="#5DB77A"/>
<stop offset="0.31" stop-color="#4F89C8"/>
<stop offset="0.78" stop-color="#2E4B7A"/>
<stop offset="1" stop-color="#21335B"/>
</linearGradient>
<clipPath id="clip0_5_20">
<rect width="153.17" height="63.8393" fill="white"/>
</clipPath>
</defs>
</svg>
